<?xml version="1.0" encoding="UTF-8"?>
<!DOCTYPE svg PUBLIC "-//W3C//DTD SVG 1.1//EN" "http://www.w3.org/Graphics/SVG/1.1/DTD/svg11.dtd">
<!-- Creator: CorelDRAW -->
<svg xmlns="http://www.w3.org/2000/svg" xml:space="preserve" width="6.82666in" height="6.82666in" style="shape-rendering:geometricPrecision; text-rendering:geometricPrecision; image-rendering:optimizeQuality; fill-rule:evenodd; clip-rule:evenodd"
viewBox="0 0 6.82666 6.82666"
 xmlns:xlink="http://www.w3.org/1999/xlink">
 <defs>
  <style type="text/css">
   <![CDATA[
    .fil0 {fill:#424242}
    .fil1 {fill:#FFFFFE}
    .fil2 {fill:#FFFFFE;fill-rule:nonzero}
   ]]>
  </style>
 </defs>
 <rect class="fil0" width="6.82666" height="6.82666"/>
 <g id="Layer_x0020_1">
  <metadata id="CorelCorpID_0Corel-Layer"/>
  <g id="_459780040">
   <path id="_460865960" class="fil1" d="M4.68396 2.78225l1.28 0 0.106669 0 0 0.106669 0 1.06667 0 0.106669 -0.106669 0 -1.28 0 -0.106669 0 0 -0.106669 0 -1.06667 0 -0.106669 0.106669 0zm0.488504 0.533984l0 0.211354 -0.106669 0 0 -0.211354 -0.037122 0.037122c-0.0208228,0.0208228 -0.0545945,0.0208228 -0.0754173,0 -0.0208228,-0.0208228 -0.0208228,-0.0545945 0,-0.0754173l0.128165 -0.128165 -3.93701e-006 -3.93701e-006c0.0208268,-0.0208268 0.0545984,-0.0208268 0.0754252,0l0.000318898 0.000326772 0.127843 0.127843c0.0208228,0.0208228 0.0208228,0.0545945 0,0.0754173 -0.0208228,0.0208228 -0.0545945,0.0208228 -0.0754173,0l-0.037122 -0.037122zm-0.20878 0.305429l0.720555 0 0 0.106669 -0.720555 0 0 -0.106669zm0.399232 -0.343724c-0.0208228,0.0208228 -0.0208228,0.0545945 0,0.0754173 0.0208228,0.0208228 0.0545945,0.0208228 0.0754173,0l0.037122 -0.037122 0 0.211354 0.106669 0 0 -0.211354 0.037122 0.037122c0.0208228,0.0208228 0.0545945,0.0208228 0.0754173,0 0.0208228,-0.0208228 0.0208228,-0.0545945 0,-0.0754173l-0.127843 -0.127843 -0.000318898 -0.000326772c-0.0208268,-0.0208268 -0.0545984,-0.0208268 -0.0754252,0l3.93701e-006 3.93701e-006 -0.128165 0.128165z"/>
   <path id="_459784168" class="fil1" d="M3.08396 2.78224l1.28 0 0.106669 0 0 0.106669 0 1.06667 0 0.106669 -0.106669 0 -1.28 0 -0.106669 0 0 -0.106669 0 -1.06667 0 -0.106669 0.106669 0zm0.488504 0.533984l0 0.211354 -0.106669 0 0 -0.211354 -0.037122 0.037122c-0.0208228,0.0208228 -0.0545945,0.0208228 -0.0754173,0 -0.0208228,-0.0208228 -0.0208228,-0.0545945 0,-0.0754173l0.128165 -0.128165 -3.93701e-006 -3.93701e-006c0.0208268,-0.0208268 0.0545984,-0.0208268 0.0754252,0l0.000318898 0.000326772 0.127843 0.127843c0.0208228,0.0208228 0.0208228,0.0545945 0,0.0754173 -0.0208228,0.0208228 -0.0545945,0.0208228 -0.0754173,0l-0.037122 -0.037122zm-0.20878 0.305429l0.720555 0 0 0.106669 -0.720555 0 0 -0.106669zm0.399232 -0.343724c-0.0208228,0.0208228 -0.0208228,0.0545945 0,0.0754173 0.0208228,0.0208228 0.0545945,0.0208228 0.0754173,0l0.037122 -0.037122 0 0.211354 0.106669 0 0 -0.211354 0.037122 0.037122c0.0208228,0.0208228 0.0545945,0.0208228 0.0754173,0 0.0208228,-0.0208228 0.0208228,-0.0545945 0,-0.0754173l-0.127843 -0.127843 -0.000318898 -0.000326772c-0.0208268,-0.0208268 -0.0545984,-0.0208268 -0.0754252,0l3.93701e-006 3.93701e-006 -0.128165 0.128165z"/>
   <path id="_459780664" class="fil1" d="M3.08396 1.39737l1.28 0 0.106669 0 0 0.106669 0 1.06667 0 0.106669 -0.106669 0 -1.28 0 -0.106669 0 0 -0.106669 0 -1.06667 0 -0.106669 0.106669 0zm0.488504 0.533984l0 0.211354 -0.106669 0 0 -0.211354 -0.037122 0.037122c-0.0208228,0.0208228 -0.0545945,0.0208228 -0.0754173,0 -0.0208228,-0.0208228 -0.0208228,-0.0545945 0,-0.0754173l0.128165 -0.128165 -3.93701e-006 -3.93701e-006c0.0208268,-0.0208268 0.0545984,-0.0208268 0.0754252,0l0.000318898 0.000326772 0.127843 0.127843c0.0208228,0.0208228 0.0208228,0.0545945 0,0.0754173 -0.0208228,0.0208228 -0.0545945,0.0208228 -0.0754173,0l-0.037122 -0.037122zm-0.20878 0.305429l0.720555 0 0 0.106669 -0.720555 0 0 -0.106669zm0.399232 -0.343724c-0.0208228,0.0208228 -0.0208228,0.0545945 0,0.0754173 0.0208228,0.0208228 0.0545945,0.0208228 0.0754173,0l0.037122 -0.037122 0 0.211354 0.106669 0 0 -0.211354 0.037122 0.037122c0.0208228,0.0208228 0.0545945,0.0208228 0.0754173,0 0.0208228,-0.0208228 0.0208228,-0.0545945 0,-0.0754173l-0.127843 -0.127843 -0.000318898 -0.000326772c-0.0208268,-0.0208268 -0.0545984,-0.0208268 -0.0754252,0l3.93701e-006 3.93701e-006 -0.128165 0.128165z"/>
   <path id="_459781120" class="fil1" d="M4.68396 1.39737l1.28 0 0.106669 0 0 0.106669 0 1.06667 0 0.106669 -0.106669 0 -1.28 0 -0.106669 0 0 -0.106669 0 -1.06667 0 -0.106669 0.106669 0zm0.488504 0.533984l0 0.211354 -0.106669 0 0 -0.211354 -0.037122 0.037122c-0.0208228,0.0208228 -0.0545945,0.0208228 -0.0754173,0 -0.0208228,-0.0208228 -0.0208228,-0.0545945 0,-0.0754173l0.128165 -0.128165 -3.93701e-006 -3.93701e-006c0.0208268,-0.0208268 0.0545984,-0.0208268 0.0754252,0l0.000318898 0.000326772 0.127843 0.127843c0.0208228,0.0208228 0.0208228,0.0545945 0,0.0754173 -0.0208228,0.0208228 -0.0545945,0.0208228 -0.0754173,0l-0.037122 -0.037122zm-0.20878 0.305429l0.720555 0 0 0.106669 -0.720555 0 0 -0.106669zm0.399232 -0.343724c-0.0208228,0.0208228 -0.0208228,0.0545945 0,0.0754173 0.0208228,0.0208228 0.0545945,0.0208228 0.0754173,0l0.037122 -0.037122 0 0.211354 0.106669 0 0 -0.211354 0.037122 0.037122c0.0208228,0.0208228 0.0545945,0.0208228 0.0754173,0 0.0208228,-0.0208228 0.0208228,-0.0545945 0,-0.0754173l-0.127843 -0.127843 -0.000318898 -0.000326772c-0.0208268,-0.0208268 -0.0545984,-0.0208268 -0.0754252,0l3.93701e-006 3.93701e-006 -0.128165 0.128165z"/>
   <path id="_459780832" class="fil2" d="M5.12458 4.40386c0.141575,0 0.269756,0.0573976 0.362535,0.150181 0.0927835,0.0927835 0.150181,0.220969 0.150181,0.362535 0,0.141575 -0.0573976,0.269756 -0.150181,0.362535 -0.0927795,0.0927835 -0.220961,0.150181 -0.362535,0.150181 -0.141567,0 -0.269752,-0.0573976 -0.362535,-0.150181 -0.0927835,-0.0927835 -0.150181,-0.220969 -0.150181,-0.362535 0,-0.141567 0.0573976,-0.269752 0.150181,-0.362535 0.0927835,-0.0927835 0.220969,-0.150181 0.362535,-0.150181zm0.135933 0.376783c-0.0347795,-0.0347835 -0.0828386,-0.0562992 -0.135933,-0.0562992 -0.0530906,0 -0.101154,0.0215197 -0.135933,0.0562992 -0.0347795,0.0347795 -0.0562992,0.0828425 -0.0562992,0.135933 0,0.0530906 0.0215197,0.101154 0.0562992,0.135933 0.0347795,0.0347795 0.0828425,0.0562992 0.135933,0.0562992 0.0530945,0 0.101154,-0.0215157 0.135933,-0.0562992 0.0347835,-0.0347795 0.0562992,-0.0828386 0.0562992,-0.135933 0,-0.0530906 -0.0215197,-0.101154 -0.0562992,-0.135933z"/>
   <path id="_459781024" class="fil2" d="M2.12322 3.18572c-0.00558268,0 -0.011063,0.000429134 -0.0164134,0.00125591 0.00534252,-0.000385827 0.0107638,-0.000586614 0.016252,-0.000586614l0.000161417 0 0 -0.000669291zm0.538996 0.710575l-1.37582 0c0.0551654,-0.0925866 0.12548,-0.176528 0.206724,-0.248079 0.170118,-0.149827 0.387276,-0.244252 0.612461,-0.248957 0.00573622,0.000448819 0.0115709,0.000685039 0.0174803,0.000685039 0.00676772,0 0.0134331,-0.00030315 0.0199685,-0.000885827l0.519189 0 0 0.497236zm-0.185476 1.12696l0.292146 0c0.0589094,0 0.106669,-0.0477598 0.106669,-0.106669l0 -3.93701e-006 0 -3.93701e-006 0 -0.00374803c0,-0.0589094 -0.0477598,-0.106669 -0.106669,-0.106669 -0.00972441,0 -0.0191417,0.00131102 -0.0280945,0.00374803l0.0280945 0c0.0576535,0 0.104622,0.045748 0.106598,0.102921l7.08661e-005 0 0 -1.62044c0,-0.0589094 -0.0477598,-0.106669 -0.106669,-0.106669l-0.645665 0c0.00568504,0 0.0112638,0.000448819 0.0167087,0.00130315 -0.00548819,-0.000413386 -0.011063,-0.000629921 -0.0167087,-0.000633858l0 -0.000669291c-0.284976,0 -0.559012,0.11585 -0.770937,0.302496 -0.211516,0.18628 -0.362094,0.444272 -0.400657,0.728988l-0.0802913 0.592701 -0.00862598 0c-0.0589094,0 -0.106669,0.0477598 -0.106669,0.106669 0,0.0589094 0.0477598,0.106669 0.106669,0.106669l0.100906 0 0.000610236 7.87402e-006 0.292146 0c-0.00608268,-0.0349488 -0.00919685,-0.070622 -0.00919685,-0.106677 0,-0.164732 0.0649606,-0.3215 0.181421,-0.437961 0.116461,-0.116461 0.273228,-0.181421 0.437961,-0.181421 0.164732,0 0.321496,0.0649606 0.437961,0.181425 0.116461,0.116461 0.181421,0.273228 0.181421,0.437957 0,0.0360551 -0.00311417,0.0717283 -0.00919685,0.106677z"/>
   <path id="_459780880" class="fil2" d="M5.81424 5.02325l0 3.93701e-006 0.000307087 -3.93701e-006 0.168157 0 0 -0.213339 -0.0617913 0 0 -0.532539c0,-0.0589094 -0.0477598,-0.106669 -0.106669,-0.106669l-3.04536 0c-0.0589094,0 -0.106669,0.0477598 -0.106669,0.106669l0 0.639217c0,0.0589094 0.0477598,0.106669 0.106669,0.106669 0.00316929,0 0.00630315,-0.000145669 0.00940157,-0.000417323l0.375201 -3.93701e-006c-0.00603543,-0.0348189 -0.00912205,-0.0703465 -0.00912205,-0.106256 0,-0.0359055 0.00309055,-0.0714291 0.00912205,-0.106244l-0.277933 0 0.277933 -3.93701e-006c0.0216457,-0.124909 0.0812244,-0.240638 0.172299,-0.331713 0.116461,-0.116461 0.273228,-0.181421 0.437961,-0.181421 0.164732,0 0.321496,0.0649606 0.437961,0.181425 0.116461,0.116461 0.181421,0.273228 0.181421,0.437957 0,0.0360512 -0.00311024,0.0717205 -0.00919291,0.106669l0.140457 0c-0.00608268,-0.0349488 -0.00919291,-0.0706181 -0.00919291,-0.106669 0,-0.164732 0.0649606,-0.3215 0.181421,-0.437961 0.116461,-0.116461 0.273228,-0.181421 0.437961,-0.181421 0.164732,0 0.321496,0.0649606 0.437961,0.181425 0.116461,0.116461 0.181421,0.273228 0.181421,0.437957 0,0.0360512 -0.00311024,0.0717205 -0.00919291,0.106669l0.0794724 0z"/>
   <path id="_459780784" class="fil2" d="M1.86655 4.40386c0.141567,0 0.269752,0.0573976 0.362535,0.150181 0.0927835,0.0927835 0.150181,0.220969 0.150181,0.362535 0,0.141575 -0.0573976,0.269756 -0.150181,0.362535 -0.0927835,0.0927835 -0.220969,0.150181 -0.362535,0.150181 -0.141567,0 -0.269752,-0.0573976 -0.362535,-0.150181 -0.0927835,-0.0927835 -0.150181,-0.220969 -0.150181,-0.362535 0,-0.141567 0.0573976,-0.269752 0.150181,-0.362535 0.0927835,-0.0927835 0.220969,-0.150181 0.362535,-0.150181zm0.211701 0.301016c-0.0541654,-0.0541654 -0.12902,-0.0876772 -0.211701,-0.0876772 -0.0826811,0 -0.157535,0.0335118 -0.211701,0.0876772 -0.0541654,0.0541654 -0.0876772,0.12902 -0.0876772,0.211701 0,0.0826811 0.0335118,0.157535 0.0876772,0.211701 0.0541654,0.0541654 0.12902,0.0876772 0.211701,0.0876772 0.0826811,0 0.157535,-0.0335118 0.211701,-0.0876772 0.0541693,-0.0541654 0.0876772,-0.129016 0.0876772,-0.211701 0,-0.0826811 -0.0335118,-0.157535 -0.0876772,-0.211701z"/>
   <path id="_459780064" class="fil2" d="M1.86655 4.40386c0.141575,0 0.269756,0.0573976 0.362535,0.150181 0.0927835,0.0927835 0.150181,0.220969 0.150181,0.362535 0,0.141575 -0.0573976,0.269756 -0.150181,0.362535 -0.0927795,0.0927835 -0.220961,0.150181 -0.362535,0.150181 -0.141567,0 -0.269752,-0.0573976 -0.362535,-0.150181 -0.0927835,-0.0927835 -0.150181,-0.220969 -0.150181,-0.362535 0,-0.141567 0.0573976,-0.269752 0.150181,-0.362535 0.0927835,-0.0927835 0.220969,-0.150181 0.362535,-0.150181zm0.135933 0.376783c-0.0347795,-0.0347835 -0.0828386,-0.0562992 -0.135933,-0.0562992 -0.0530906,0 -0.101154,0.0215197 -0.135933,0.0562992 -0.0347795,0.0347795 -0.0562992,0.0828425 -0.0562992,0.135933 0,0.0530906 0.0215197,0.101154 0.0562992,0.135933 0.0347795,0.0347795 0.0828425,0.0562992 0.135933,0.0562992 0.0530945,0 0.101154,-0.0215157 0.135933,-0.0562992 0.0347835,-0.0347795 0.0562992,-0.0828386 0.0562992,-0.135933 0,-0.0530906 -0.0215197,-0.101154 -0.0562992,-0.135933z"/>
   <path id="_459779872" class="fil2" d="M3.76374 4.40386c0.141575,0 0.269756,0.0573976 0.362535,0.150181 0.0927835,0.0927835 0.150181,0.220969 0.150181,0.362535 0,0.141575 -0.0573976,0.269756 -0.150181,0.362535 -0.0927795,0.0927835 -0.220961,0.150181 -0.362535,0.150181 -0.141567,0 -0.269752,-0.0573976 -0.362535,-0.150181 -0.0927835,-0.0927835 -0.150181,-0.220969 -0.150181,-0.362535 0,-0.141567 0.0573976,-0.269752 0.150181,-0.362535 0.0927835,-0.0927835 0.220969,-0.150181 0.362535,-0.150181zm0.135933 0.376783c-0.0347795,-0.0347835 -0.0828386,-0.0562992 -0.135933,-0.0562992 -0.0530906,0 -0.101154,0.0215197 -0.135933,0.0562992 -0.0347795,0.0347795 -0.0562992,0.0828425 -0.0562992,0.135933 0,0.0530906 0.0215197,0.101154 0.0562992,0.135933 0.0347795,0.0347795 0.0828425,0.0562992 0.135933,0.0562992 0.0530945,0 0.101154,-0.0215157 0.135933,-0.0562992 0.0347835,-0.0347795 0.0562992,-0.0828386 0.0562992,-0.135933 0,-0.0530906 -0.0215197,-0.101154 -0.0562992,-0.135933z"/>
   <circle id="_459780448" class="fil1" cx="1.86655" cy="4.91658" r="0.0858583"/>
   <circle id="_459780016" class="fil1" cx="3.76374" cy="4.91658" r="0.0858583"/>
   <circle id="_459780520" class="fil1" cx="5.12458" cy="4.91658" r="0.0858583"/>
  </g>
 </g>
</svg>
